<svg width="264" height="45" viewBox="0 0 264 45" fill="none" xmlns="http://www.w3.org/2000/svg">
<path d="M25.4349 31.8777V25.5917H20.0983V31.8777H16.019L20.9737 36.8394C21.9703 37.8373 23.5815 37.8373 24.578 36.8394L29.5328 31.8777H25.4349ZM13.346 29.201V15.6777L8.39121 20.6394C7.39466 21.6373 7.39466 23.2508 8.39121 24.2487L13.346 29.201ZM20.0983 13.0104V19.2964H25.4349V13.0104H29.5142L24.5594 8.04871C23.5629 7.05078 21.9516 7.05078 20.9551 8.04871L16.0003 13.0104H20.0983ZM37.1326 20.6394L32.1778 15.6777V29.201L37.1326 24.2487C38.1292 23.2508 38.1292 21.6373 37.1326 20.6394Z" fill="#DA291C"/>
<path d="M54.2694 19.8933V15.1834C54.2694 13.943 53.3567 13.029 52.118 13.029H46.204V18.0093H48.8955V31.8777H54.2787V25.0135H61.0031V31.8777H66.3863V13.0197H61.0031V19.8933H54.2694Z" fill="#DA291C"/>
<path d="M78.7453 12.7492C73.0734 12.7492 68.9289 16.8435 68.9289 22.4487C68.9289 28.0539 73.0734 32.1482 78.7453 32.1482C84.4172 32.1482 88.5617 28.0539 88.5617 22.4487C88.5617 16.8435 84.4172 12.7492 78.7453 12.7492ZM78.7453 26.8881C76.1934 26.8881 74.312 25.0041 74.312 22.4487C74.312 19.8933 76.1934 18.0093 78.7453 18.0093C81.2972 18.0093 83.1785 19.8933 83.1785 22.4487C83.1785 25.0041 81.2972 26.8881 78.7453 26.8881Z" fill="#DA291C"/>
<path d="M105.205 21.8984C106.537 21.087 107.366 19.6974 107.366 18.028C107.366 15.1181 105.484 13.0197 101.74 13.0197H91.1136V31.8684H101.74C105.671 31.8684 107.952 29.5834 107.952 26.4311C107.952 24.4166 106.881 22.7751 105.205 21.8984ZM96.1149 17.2259H100.12C101.386 17.2259 102.113 17.8415 102.113 18.8953C102.113 19.9492 101.386 20.5648 100.12 20.5648H96.1149V17.2259ZM100.502 27.7275H96.1149V24.2301H100.502C101.843 24.2301 102.597 24.8736 102.597 25.9834C102.597 27.0839 101.843 27.7275 100.502 27.7275Z" fill="#DA291C"/>
<path d="M116.176 13.0197L108.753 31.8684H114.481L115.673 28.399H123.236L124.428 31.8684H130.267L122.845 13.0197H116.176ZM117.135 24.1741L119.259 18.0093H119.669L121.792 24.1741H117.135Z" fill="#DA291C"/>
<path d="M155.982 13.0197H137.97V18H140.661V31.8684H146.044V18H152.769V31.8684H158.152V15.1741C158.133 13.8031 157.351 13.0197 155.982 13.0197Z" fill="#DA291C"/>
<path d="M170.502 12.7492C164.83 12.7492 160.685 16.8435 160.685 22.4487C160.685 28.0539 164.83 32.1482 170.502 32.1482C176.174 32.1482 180.318 28.0539 180.318 22.4487C180.318 16.8435 176.183 12.7492 170.502 12.7492ZM170.502 26.8881C167.95 26.8881 166.068 25.0041 166.068 22.4487C166.068 19.8933 167.95 18.0093 170.502 18.0093C173.054 18.0093 174.935 19.8933 174.935 22.4487C174.935 25.0041 173.063 26.8881 170.502 26.8881Z" fill="#DA291C"/>
<path d="M203.853 26.8881H198.74V13.0197H193.366V26.8881H188.253V13.0197H182.879V31.8777H209.236V13.0197H203.853V26.8881Z" fill="#DA291C"/>
<path d="M230.071 18V13.0197H211.788V18H218.243V31.8777H223.617V18H230.071Z" fill="#DA291C"/>
<path d="M244.143 31.8777H249.983L242.56 13.029H235.892L228.469 31.8777H234.197L235.389 28.4083H242.951L244.143 31.8777ZM236.842 24.1741L238.965 18.0093H239.375L241.498 24.1741H236.842Z" fill="#DA291C"/>
</svg>
